<svg xmlns="http://www.w3.org/2000/svg" viewBox="0 0 22.06 38.4"><defs><style>.cls-1{fill:#fefefe;}.cls-2{fill:#b2ae74;}.cls-3{fill:#77744b;}</style></defs><title>Asset 1</title><g id="Layer_2" data-name="Layer 2"><g id="Layer_1-2" data-name="Layer 1"><g id="vUSaU7.tif"><path class="cls-1" d="M0,19.21Q0,9.68,0,.15C0,.05,0,0,.12,0H21.93c.12,0,.13,0,.13.14q0,19.06,0,38.12c0,.11,0,.14-.13.14H.14c-.12,0-.14,0-.14-.14Q0,28.74,0,19.21Zm11,16,0,0c.21-.83.44-1.65.68-2.46s.5-1.63.78-2.44c.17-.48.33-1,.51-1.42q.56-1.49,1.19-3a23.11,23.11,0,0,1,1-2.24c.45-.81.89-1.62,1.35-2.42s.89-1.54,1.35-2.31.76-1.28,1.1-1.94A14.86,14.86,0,0,0,20.28,14a11.52,11.52,0,0,0,.4-2.45,8.43,8.43,0,0,0,0-1.16A9.84,9.84,0,0,0,20.51,9a9.68,9.68,0,0,0-1.07-2.73A9.08,9.08,0,0,0,18,4.41a9.71,9.71,0,0,0-.83-.73,11.39,11.39,0,0,0-1.84-1.19,10.61,10.61,0,0,0-2-.78A9.76,9.76,0,0,0,11,1.35a7.88,7.88,0,0,0-1.21.08,8.47,8.47,0,0,0-1.49.32,10,10,0,0,0-2.11.92A10.65,10.65,0,0,0,4.33,4a9.47,9.47,0,0,0-.85.89,9,9,0,0,0-1,1.42,9.45,9.45,0,0,0-.94,2.46,8.46,8.46,0,0,0-.22,1.82,12.94,12.94,0,0,0,.07,1.31,11.25,11.25,0,0,0,.24,1.46,12.68,12.68,0,0,0,1,2.72c.41.85.89,1.66,1.36,2.47.32.55.65,1.1,1,1.65L6,22l.6,1.07c.22.41.45.81.65,1.23s.36.84.54,1.27.47,1.14.71,1.71q.52,1.29,1,2.6t.92,2.89C10.62,33.55,10.83,34.36,11,35.16Z" transform="translate(0 -0.02)"/><path class="cls-2" d="M11,35.16c-.21-.81-.43-1.61-.66-2.41Q10,31.3,9.46,29.87t-1-2.6c-.23-.57-.47-1.14-.71-1.71s-.34-.85-.54-1.27-.43-.82-.65-1.23L6,22,5,20.26c-.32-.55-.66-1.1-1-1.65-.47-.81-.95-1.63-1.36-2.47a12.68,12.68,0,0,1-1-2.72,11.25,11.25,0,0,1-.24-1.46,12.94,12.94,0,0,1-.07-1.31,8.46,8.46,0,0,1,.22-1.82,9.45,9.45,0,0,1,.94-2.46,9,9,0,0,1,1-1.42A9.47,9.47,0,0,1,4.33,4,10.65,10.65,0,0,1,6.2,2.67a10,10,0,0,1,2.11-.92,8.47,8.47,0,0,1,1.49-.32A7.88,7.88,0,0,1,11,1.35a9.76,9.76,0,0,1,2.35.36,10.61,10.61,0,0,1,2,.78,11.39,11.39,0,0,1,1.84,1.19,9.71,9.71,0,0,1,.83.73,9.08,9.08,0,0,1,1.45,1.88A9.68,9.68,0,0,1,20.51,9a9.84,9.84,0,0,1,.19,1.36,8.43,8.43,0,0,1,0,1.16,11.52,11.52,0,0,1-.4,2.45,14.86,14.86,0,0,1-1.23,2.94c-.35.66-.72,1.3-1.1,1.94s-.9,1.54-1.35,2.31-.9,1.61-1.35,2.42a23.11,23.11,0,0,0-1,2.24q-.62,1.47-1.19,3c-.18.47-.34.95-.51,1.42-.28.81-.54,1.62-.78,2.44s-.47,1.64-.68,2.46Zm-4-23.73a3.69,3.69,0,0,0,1.05,2.22A4,4,0,0,0,15,10.91,4,4,0,0,0,11,7,4.1,4.1,0,0,0,7.07,11.44Z" transform="translate(0 -0.02)"/><path class="cls-3" d="M7.07,11.44A4.1,4.1,0,0,1,11,7a4,4,0,0,1,4,3.91,4,4,0,0,1-6.86,2.75A3.69,3.69,0,0,1,7.07,11.44Z" transform="translate(0 -0.02)"/></g></g></g></svg>