<svg xmlns="http://www.w3.org/2000/svg" viewBox="0 0 1085 976.26"><defs><style>.cls-1{fill:#fff;}</style></defs><title>Asset 1</title><g id="Layer_2" data-name="Layer 2"><g id="Layer_1-2" data-name="Layer 1"><g id="rm5hJp.tif"><path class="cls-1" d="M1085,1.26c.81,3.22,2.31,6.44,2.32,9.67q.18,203,.1,406V977.52H2.42q0-262.19,0-524.38c32.08-11.45,64.35-22.39,96.18-34.5,29.24-11.13,57.63-24.59,87.08-35.07,34.35-12.23,69.86-21.23,104.12-33.69,39.16-14.24,77.17-31.66,116.29-46,62.09-22.8,124.86-43.77,187-66.45,24.41-8.91,47.88-20.37,72.1-30.81,4.78,7.36,7.15,13.18-2.69,17.86-9.57,4.55-12.9,13.25-14.32,24.25l16.06-5.2c.22,5.1.64,8.68.5,12.24q-4.14,103.7-8.4,207.4c-1.18,28.94-2.51,57.87-3.42,86.82-.11,3.63-3.25,11,6.06,8.77l-.32-.29v29.76c-1.76.27-6.39,1.23-11.07,1.68-17,1.61-21.25,10.74-11.59,25.84l19.16-9.45c-.08,1.68.53,4.37-.36,5-5.31,3.93-11.47,6.84-16.33,11.22a22.93,22.93,0,0,0-6.58,11.66c-.57,2.68,2.37,6.1,3.74,9.19-.43,9.56-20.68,12.78-16.2,32.15l13.21-17.3c1.06,17.91-9.7,27.37-23.11,36,9.65,2.33,20.1,6.23,26.88,2.83,13.06-6.56,21.59-5,29.33,6.51l-14.94,3.91a69.88,69.88,0,0,0,17.88-1.17c22.46-4.65,44.85-9.58,67.27-14.41l11.27-2.45c18.21-4.86,36.49-9.49,54.62-14.62,26.21-7.42,52.29-13.45,80.63,4.48-10.21-23.34-14.95-44-32.58-60.54-22.3-20.93-40-46.54-50.7-76.25-1.42-4-9.88-8.95-13.57-7.94-19.76,5.39-40.37,10.14-58,19.91-11.87,6.57-14.37.21-17-6.06-3.21-7.6-4.46-16.32-5.07-24.67-5.78-79.07-11.68-158.14-16.39-237.28-.87-14.54,3.45-29.39,5.66-46.28,22.51,9.32,28.41,28.93,42,41.64a107.14,107.14,0,0,0-10-23.91c-9.19-15.4-16.78-32.58-36.79-37.61-1.47-.37-3-2.57-3.54-4.23-3.77-11.51.17-21.2,11.25-26.29,49.6-22.79,99.83-44.26,148.81-68.29C926.37,82.23,1005.52,41.4,1085,1.26ZM511.64,855.89l1.07,2.24c-2.22,1.39-4.36,2.91-6.67,4.14-19.27,10.25-25.55,27.68-14.08,46.17A94.83,94.83,0,0,0,518,936.14c49.46,33.85,104.08,46,162.92,32.58q75-17.08,149.32-37.24c33.56-9.17,66.85-19.82,99.32-32.26a79.37,79.37,0,0,0,45-43.29c2.22-5.13,3.54-12.39,1.62-17.22-5.52-13.9-12.05-27.47-18.07-41.12-9.42-21.38-24-40.41-44.35-54.29-11.39-7.78-21.37-17.56-23.89-32.92-2.14-13.06-13.64-21.46-27.21-20.25a170.94,170.94,0,0,0-31.87,6.14c-31.67,9.1-62.61,21.87-94.83,27.63a1339.13,1339.13,0,0,1-144.67,17.55C539.26,745,490,758.28,441.43,775.66c-10.45,3.74-20.34,9.58-29.68,15.69-8.7,5.69-10.78,15.4-4.33,23.17,7.75,9.33,16.7,19.42,27.37,24.16,16.64,7.4,35.21,10.37,52.82,15.7,3.6,1.09,6.56,4.3,10.27,6.85ZM878.62,686c-9.22-9.84-15.6-13.44-27.57-10.49-19.76,4.86-39.86,9.35-58.69,16.85-53.62,21.36-109.09,32-166.62,33.81-16,.49-31.84,3.32-47.76,5.08l.38,3.7c39.77-4.13,79.92-6.07,119.21-12.95,45.08-7.89,89.28-20.62,134.08-30.27C847.67,688.29,864.31,687.68,878.62,686ZM648.08,565.65l-13.62,15.56C649.33,585.35,651,583.46,648.08,565.65Z" transform="translate(-2.42 -1.26)"/><path class="cls-1" d="M2.42,436.22q0-217.48,0-435H1060.84L995.42,41.59l-1.88-3,17.67-11.35-2.3-4.08L686.56,188.24l-.37-4.59c-5.56-.4-11.3-1.88-16.63-1-10,1.7-7.75,9.68-6.47,16.73l-22.14,9.81c-1.22-3.4-3.6-5.07-5.17-4.51-20.73,7.5-41.44,15.07-62,23.09C522.19,248,470.46,267.86,419.2,288.87c-33.15,13.59-65.57,29-98.32,43.55l-1-2.18L351,314.53c-31.67,7.75-62.21,18.52-93.14,28-43.17,13.26-80.31,40.1-125.89,49.57C87.65,401.33,45.52,421.09,2.42,436.22Z" transform="translate(-2.42 -1.26)"/><path d="M2.42,436.22c43.1-15.13,85.24-34.9,129.57-44.11,45.58-9.47,82.72-36.31,125.89-49.57,30.93-9.5,61.47-20.27,93.14-28l-31.16,15.72,1,2.18c32.75-14.58,65.17-30,98.32-43.55,51.27-21,103-40.91,154.61-61.07,20.53-8,41.24-15.59,62-23.09,1.57-.57,4,1.1,5.17,4.51l22.14-9.81c-1.27-7-3.54-15,6.47-16.73,5.34-.9,11.07.57,16.63,1l.37,4.59L1008.92,23.11l2.3,4.08L993.54,38.55l1.88,3,65.41-40.33H1085c-79.48,40.14-158.63,81-238.57,120.18-49,24-99.22,45.5-148.81,68.29-11.08,5.09-15,14.78-11.25,26.29.55,1.66,2.07,3.86,3.54,4.23,20,5,27.6,22.22,36.79,37.61a107.14,107.14,0,0,1,10,23.91c-13.56-12.7-19.46-32.31-42-41.64-2.21,16.89-6.52,31.74-5.66,46.28,4.71,79.14,10.61,158.21,16.39,237.28.61,8.35,1.86,17.07,5.07,24.67,2.65,6.27,5.15,12.63,17,6.06,17.65-9.78,38.26-14.52,58-19.91,3.69-1,12.15,4,13.57,7.94,10.67,29.71,28.4,55.32,50.7,76.25,17.63,16.55,22.37,37.2,32.58,60.54-28.33-17.93-54.41-11.9-80.63-4.48-18.13,5.13-36.41,9.77-54.62,14.62L771.12,677,770,674.18l-47.62,19.55-56.62,9.76C658,692,649.44,690.42,636.38,697c-6.78,3.4-17.23-.49-26.88-2.83,13.42-8.59,24.17-18,23.11-36l-13.21,17.3c-4.48-19.37,15.77-22.59,16.2-32.15-1.37-3.09-4.31-6.51-3.74-9.19a22.93,22.93,0,0,1,6.58-11.66c4.86-4.38,11-7.29,16.33-11.22.89-.66.28-3.35.36-5L636,615.71c-9.66-15.1-5.38-24.23,11.59-25.84,4.68-.44,9.31-1.4,11.07-1.68,0-11,0-20.36,0-29.73,12.18,0,24.35,0,36.89,0L679.3,263.41c-3.53,2.84-5.61,6.4-5.8,10.07-3.09,58.19-5.91,116.39-8.84,174.58q-2.79,55.34-5.7,110.67c-9.31,2.21-6.17-5.14-6.06-8.77.91-28.95,2.24-57.88,3.42-86.82q4.23-103.7,8.4-207.4c.14-3.56-.27-7.14-.5-12.24l-16.06,5.2c1.43-11,4.75-19.71,14.32-24.25,9.83-4.68,7.47-10.5,2.69-17.86C641,217,617.48,228.49,593.08,237.4c-62.14,22.69-124.9,43.65-187,66.45-39.12,14.37-77.12,31.79-116.29,46-34.26,12.45-69.77,21.46-104.12,33.69-29.45,10.49-57.84,23.94-87.08,35.07-31.83,12.11-64.1,23.05-96.18,34.5Q2.42,444.68,2.42,436.22ZM766.6,617.59l-.44-4.15c-20.58-15.94-43.62-20.58-70.34-14.82l10.58,17c1.12-5.75,1.45-11.33,2.35-11.43,7-.73,14.05-.4,21.58-.4L724,620.65l1.93.66,2.71-6.23,6,11.86Zm12.05,44,2.36,3.26c2.56-2.31,5.21-4.53,7.66-7,3.11-3.09,5.65-6.93,9.16-9.42,12.82-9.09,25.95-17.75,39.17-26.71C817.28,620.46,782.24,644.53,778.66,661.6Z" transform="translate(-2.42 -1.26)"/><path d="M511.64,855.89l-13.76,5.35c-3.71-2.55-6.67-5.76-10.27-6.85-17.61-5.33-36.19-8.3-52.82-15.7-10.66-4.74-19.62-14.83-27.37-24.16-6.45-7.77-4.36-17.48,4.33-23.17,9.34-6.11,19.24-11.95,29.68-15.69C490,758.28,539.26,745,591.33,741.44A1339.13,1339.13,0,0,0,736,723.89c32.22-5.76,63.16-18.53,94.83-27.63a170.94,170.94,0,0,1,31.87-6.14c13.57-1.21,25.07,7.19,27.21,20.25,2.52,15.36,12.5,25.15,23.89,32.92,20.33,13.88,34.92,32.91,44.35,54.29,6,13.65,12.55,27.23,18.07,41.12,1.92,4.83.59,12.09-1.62,17.22a79.37,79.37,0,0,1-45,43.29c-32.47,12.44-65.77,23.09-99.32,32.26Q756.07,951.75,681,968.72C622.12,982.12,567.51,970,518,936.14A94.83,94.83,0,0,1,492,908.43c-11.47-18.49-5.19-35.92,14.08-46.17,2.3-1.23,4.45-2.75,6.67-4.14Zm385.52-39.64L896,811.84c-67.87,31.42-138.27,42.53-211.95,29.81l29,6.45-5.1,4.29c9,2.22,17.35,3.43,25.06,6.34,26,9.81,50.4,1.47,75.05-5.26,6.84-13.64,21.47-12,32.88-16.53C859.5,829.65,878.39,823.11,897.16,816.25Z" transform="translate(-2.42 -1.26)"/><path d="M878.62,686c-14.31,1.67-30.94,2.27-47,5.72-44.8,9.65-89,22.38-134.08,30.27-39.29,6.88-79.44,8.82-119.21,12.95l-.38-3.7c15.92-1.76,31.81-4.6,47.76-5.08,57.53-1.76,113-12.45,166.62-33.81,18.82-7.5,38.92-12,58.69-16.85C863,672.58,869.4,676.17,878.62,686Z" transform="translate(-2.42 -1.26)"/><path d="M665.71,703.49l56.62-9.76,13.59-1.91c-22.42,4.83-44.82,9.76-67.27,14.41a69.88,69.88,0,0,1-17.88,1.17Z" transform="translate(-2.42 -1.26)"/><path class="cls-1" d="M735.93,691.82l-13.59,1.91L770,674.18l1.17,2.77L747.2,689.37Z" transform="translate(-2.42 -1.26)"/><path d="M648.08,565.65c2.94,17.81,1.25,19.7-13.62,15.56Z" transform="translate(-2.42 -1.26)"/><path class="cls-1" d="M659,558.73q2.85-55.33,5.7-110.67c2.93-58.19,5.75-116.4,8.84-174.58.19-3.66,2.28-7.23,5.8-10.07l16.25,295.07c-12.55,0-24.71,0-36.89,0Z" transform="translate(-2.42 -1.26)"/><path class="cls-1" d="M766.6,617.59l-31.94,9.36-6-11.86L726,621.31l-1.93-.66,6.3-16.84c-7.53,0-14.61-.33-21.58.4-.9.09-1.23,5.68-2.35,11.43l-10.58-17c26.72-5.76,49.76-1.12,70.34,14.82Z" transform="translate(-2.42 -1.26)"/><path class="cls-1" d="M778.66,661.6c3.59-17.07,38.62-41.14,58.34-39.84-13.22,9-26.34,17.62-39.17,26.71-3.51,2.49-6,6.33-9.16,9.42-2.45,2.43-5.1,4.65-7.66,7Z" transform="translate(-2.42 -1.26)"/><path class="cls-1" d="M897.16,816.25c-18.77,6.86-37.66,13.4-56.26,20.71-11.41,4.48-26,2.88-32.88,16.53-24.66,6.73-49.1,15.07-75.05,5.26-7.71-2.91-16.06-4.12-25.06-6.34l5.1-4.29-29-6.45c73.68,12.72,144.08,1.61,211.95-29.81Z" transform="translate(-2.42 -1.26)"/></g></g></g></svg>